<mxfile host="65bd71144e" modified="2020-10-22T07:14:48.544Z" agent="5.0 (Macintosh; Intel Mac OS X 10_15_4) AppleWebKit/537.36 (KHTML, like Gecko) Code/1.50.0 Chrome/83.0.4103.122 Electron/9.2.1 Safari/537.36" etag="h-ViURa7-qA0PaAYn9cF" version="13.6.5">
    <diagram id="8zrxYpD9irFq4sK6_zCs" name="第 1 页">
        <mxGraphModel dx="659" dy="584" grid="1" gridSize="10" guides="1" tooltips="1" connect="1" arrows="1" fold="1" page="1" pageScale="1" pageWidth="827" pageHeight="1169" background="#F4F1DE" math="0" shadow="0">
            <root>
                <mxCell id="0"/>
                <mxCell id="1" style="" parent="0"/>
                <mxCell id="18" value="" style="rounded=0;whiteSpace=wrap;html=1;sketch=1;fillColor=none;dashed=1;fontFamily=杨任东竹石体;fontColor=#393C56;strokeColor=#FF00FF;" parent="1" vertex="1">
                    <mxGeometry x="400" y="140" width="340" height="130" as="geometry"/>
                </mxCell>
                <mxCell id="16" style="edgeStyle=orthogonalEdgeStyle;curved=0;rounded=1;sketch=1;orthogonalLoop=1;jettySize=auto;html=1;exitX=1;exitY=0.5;exitDx=0;exitDy=0;entryX=0;entryY=0.5;entryDx=0;entryDy=0;fontFamily=杨任东竹石体;labelBackgroundColor=#F4F1DE;strokeColor=#E07A5F;fontColor=#393C56;fontSize=16;" parent="1" source="6" target="15" edge="1">
                    <mxGeometry relative="1" as="geometry"/>
                </mxCell>
                <mxCell id="2" value="模版" style="rounded=0;whiteSpace=wrap;html=1;sketch=1;fontFamily=杨任东竹石体;fillColor=#F2CC8F;strokeColor=#E07A5F;fontColor=#393C56;fontSize=16;" parent="1" vertex="1">
                    <mxGeometry x="60" y="180" width="120" height="60" as="geometry"/>
                </mxCell>
                <mxCell id="4" value="" style="endArrow=classic;html=1;fontFamily=杨任东竹石体;sketch=1;labelBackgroundColor=#F4F1DE;strokeColor=#E07A5F;fontColor=#393C56;fontSize=16;" parent="1" edge="1">
                    <mxGeometry width="50" height="50" relative="1" as="geometry">
                        <mxPoint x="180" y="209.5" as="sourcePoint"/>
                        <mxPoint x="240" y="209.5" as="targetPoint"/>
                    </mxGeometry>
                </mxCell>
                <mxCell id="8" style="edgeStyle=orthogonalEdgeStyle;rounded=0;orthogonalLoop=1;jettySize=auto;html=1;entryX=0;entryY=0.5;entryDx=0;entryDy=0;fontFamily=杨任东竹石体;sketch=1;labelBackgroundColor=#F4F1DE;strokeColor=#E07A5F;fontColor=#393C56;fontSize=16;" parent="1" source="5" target="6" edge="1">
                    <mxGeometry relative="1" as="geometry"/>
                </mxCell>
                <mxCell id="5" value="render函数" style="rounded=0;whiteSpace=wrap;html=1;fontFamily=杨任东竹石体;sketch=1;fillColor=#F2CC8F;strokeColor=#E07A5F;fontColor=#393C56;fontSize=16;" parent="1" vertex="1">
                    <mxGeometry x="240" y="180" width="120" height="60" as="geometry"/>
                </mxCell>
                <mxCell id="6" value="vnode" style="rounded=0;whiteSpace=wrap;html=1;fontFamily=杨任东竹石体;sketch=1;fillColor=#F2CC8F;strokeColor=#E07A5F;fontColor=#393C56;fontSize=16;" parent="1" vertex="1">
                    <mxGeometry x="414" y="180" width="120" height="60" as="geometry"/>
                </mxCell>
                <mxCell id="9" value="编译" style="text;html=1;align=center;verticalAlign=middle;resizable=0;points=[];autosize=1;fontFamily=杨任东竹石体;sketch=1;fontColor=#393C56;fontSize=16;" parent="1" vertex="1">
                    <mxGeometry x="185" y="190" width="50" height="20" as="geometry"/>
                </mxCell>
                <mxCell id="10" value="执行" style="text;html=1;align=center;verticalAlign=middle;resizable=0;points=[];autosize=1;fontFamily=杨任东竹石体;sketch=1;fontColor=#393C56;fontSize=16;" parent="1" vertex="1">
                    <mxGeometry x="355" y="190" width="50" height="20" as="geometry"/>
                </mxCell>
                <mxCell id="11" value="页面" style="rounded=0;whiteSpace=wrap;html=1;labelBorderColor=none;sketch=1;fontFamily=杨任东竹石体;fillColor=#F2CC8F;strokeColor=#E07A5F;fontColor=#393C56;fontSize=16;" parent="1" vertex="1">
                    <mxGeometry x="520" y="340" width="120" height="60" as="geometry"/>
                </mxCell>
                <mxCell id="13" value="patch" style="text;html=1;align=center;verticalAlign=middle;resizable=0;points=[];autosize=1;fontFamily=杨任东竹石体;sketch=1;fontColor=#393C56;fontSize=16;" parent="1" vertex="1">
                    <mxGeometry x="534" y="110" width="40" height="20" as="geometry"/>
                </mxCell>
                <mxCell id="15" value="oldVnode" style="rounded=0;whiteSpace=wrap;html=1;fontFamily=杨任东竹石体;sketch=1;fillColor=#F2CC8F;strokeColor=#E07A5F;fontColor=#393C56;fontSize=16;" parent="1" vertex="1">
                    <mxGeometry x="579" y="180" width="120" height="60" as="geometry"/>
                </mxCell>
                <mxCell id="17" value="diff" style="text;html=1;align=center;verticalAlign=middle;resizable=0;points=[];autosize=1;fontFamily=杨任东竹石体;fontColor=#393C56;fontSize=16;" parent="1" vertex="1">
                    <mxGeometry x="535" y="190" width="30" height="20" as="geometry"/>
                </mxCell>
                <mxCell id="19" style="edgeStyle=orthogonalEdgeStyle;curved=0;rounded=1;sketch=1;orthogonalLoop=1;jettySize=auto;html=1;exitX=0.5;exitY=1;exitDx=0;exitDy=0;entryX=0.417;entryY=0;entryDx=0;entryDy=0;entryPerimeter=0;fontFamily=杨任东竹石体;labelBackgroundColor=#F4F1DE;strokeColor=#E07A5F;fontColor=#393C56;fontSize=16;" parent="1" source="18" target="11" edge="1">
                    <mxGeometry relative="1" as="geometry"/>
                </mxCell>
            </root>
        </mxGraphModel>
    </diagram>
</mxfile>